<?xml version='1.0' encoding='UTF-8'?>
<!DOCTYPE svg PUBLIC "-//W3C//DTD SVG 1.1//EN" "http://www.w3.org/Graphics/SVG/1.1/DTD/svg11.dtd">
<!-- Generated by graphviz version 2.43.0 (0)
 -->
<!-- Title: %3 Pages: 1 -->
<svg xmlns="http://www.w3.org/2000/svg" xmlns:xlink="http://www.w3.org/1999/xlink" width="998pt" height="734pt" viewBox="0.00 0.00 998.00 734.00">
  <style>
    @import url("https://fonts.googleapis.com/css?family=Roboto:400,400i,700,700i");
    </style>
  <g id="graph0" class="graph" transform="scale(1 1) rotate(0) translate(4 730)">
    <title>%3</title>
    <polygon fill="#eeeeee" stroke="transparent" points="-4,4 -4,-730 994,-730 994,4 -4,4"/>
    <!-- Email -->
    <g id="node1" class="table-hover">
      <title>Email</title>
      <g id="a_node1">
        <a xlink:href="http://Email_details.html" xlink:title="&lt;TABLE&gt;">
          <polygon fill="#3f51b5" stroke="transparent" points="8.5,-683.5 8.5,-702.5 237.5,-702.5 237.5,-683.5 8.5,-683.5"/>
          <polygon fill="none" stroke="black" points="8.5,-683.5 8.5,-702.5 237.5,-702.5 237.5,-683.5 8.5,-683.5"/>
          <text text-anchor="start" x="106" y="-689.9" font-family="Roboto" font-size="12.00" fill="white">Email</text>
          <polygon fill="#bbdefb" stroke="transparent" points="8.5,-664.5 8.5,-683.5 82.5,-683.5 82.5,-664.5 8.5,-664.5"/>
          <polygon fill="none" stroke="black" points="8.5,-664.5 8.5,-683.5 82.5,-683.5 82.5,-664.5 8.5,-664.5"/>
          <text text-anchor="start" x="32" y="-670.9" font-family="Roboto" font-size="12.00">type</text>
          <polygon fill="#bbdefb" stroke="transparent" points="82.5,-664.5 82.5,-683.5 237.5,-683.5 237.5,-664.5 82.5,-664.5"/>
          <polygon fill="none" stroke="black" points="82.5,-664.5 82.5,-683.5 237.5,-683.5 237.5,-664.5 82.5,-664.5"/>
          <text text-anchor="start" x="125" y="-670.9" font-family="Roboto" font-size="12.00">VARCHAR ()</text>
          <polygon fill="#bbdefb" stroke="transparent" points="8.5,-645.5 8.5,-664.5 82.5,-664.5 82.5,-645.5 8.5,-645.5"/>
          <polygon fill="none" stroke="black" points="8.5,-645.5 8.5,-664.5 82.5,-664.5 82.5,-645.5 8.5,-645.5"/>
          <text text-anchor="start" x="24" y="-651.9" font-family="Roboto" font-size="12.00">subject</text>
          <polygon fill="#bbdefb" stroke="transparent" points="82.5,-645.5 82.5,-664.5 237.5,-664.5 237.5,-645.5 82.5,-645.5"/>
          <polygon fill="none" stroke="black" points="82.5,-645.5 82.5,-664.5 237.5,-664.5 237.5,-645.5 82.5,-645.5"/>
          <text text-anchor="start" x="125" y="-651.9" font-family="Roboto" font-size="12.00">VARCHAR ()</text>
          <polygon fill="#bbdefb" stroke="transparent" points="8.5,-626.5 8.5,-645.5 82.5,-645.5 82.5,-626.5 8.5,-626.5"/>
          <polygon fill="none" stroke="black" points="8.5,-626.5 8.5,-645.5 82.5,-645.5 82.5,-626.5 8.5,-626.5"/>
          <text text-anchor="start" x="30.5" y="-632.9" font-family="Roboto" font-size="12.00">body</text>
          <polygon fill="#bbdefb" stroke="transparent" points="82.5,-626.5 82.5,-645.5 237.5,-645.5 237.5,-626.5 82.5,-626.5"/>
          <polygon fill="none" stroke="black" points="82.5,-626.5 82.5,-645.5 237.5,-645.5 237.5,-626.5 82.5,-626.5"/>
          <text text-anchor="start" x="125" y="-632.9" font-family="Roboto" font-size="12.00">VARCHAR ()</text>
          <polygon fill="#bbdefb" stroke="transparent" points="8.5,-607.5 8.5,-626.5 82.5,-626.5 82.5,-607.5 8.5,-607.5"/>
          <polygon fill="none" stroke="black" points="8.5,-607.5 8.5,-626.5 82.5,-626.5 82.5,-607.5 8.5,-607.5"/>
          <text text-anchor="start" x="24.5" y="-613.9" font-family="Roboto" font-size="12.00">sender</text>
          <polygon fill="#bbdefb" stroke="transparent" points="82.5,-607.5 82.5,-626.5 237.5,-626.5 237.5,-607.5 82.5,-607.5"/>
          <polygon fill="none" stroke="black" points="82.5,-607.5 82.5,-626.5 237.5,-626.5 237.5,-607.5 82.5,-607.5"/>
          <text text-anchor="start" x="125" y="-613.9" font-family="Roboto" font-size="12.00">VARCHAR ()</text>
          <polygon fill="#bbdefb" stroke="transparent" points="8.5,-588.5 8.5,-607.5 82.5,-607.5 82.5,-588.5 8.5,-588.5"/>
          <polygon fill="none" stroke="black" points="8.5,-588.5 8.5,-607.5 82.5,-607.5 82.5,-588.5 8.5,-588.5"/>
          <text text-anchor="start" x="39" y="-594.9" font-family="Roboto" font-size="12.00">to</text>
          <polygon fill="#bbdefb" stroke="transparent" points="82.5,-588.5 82.5,-607.5 237.5,-607.5 237.5,-588.5 82.5,-588.5"/>
          <polygon fill="none" stroke="black" points="82.5,-588.5 82.5,-607.5 237.5,-607.5 237.5,-588.5 82.5,-588.5"/>
          <text text-anchor="start" x="125" y="-594.9" font-family="Roboto" font-size="12.00">VARCHAR ()</text>
          <polygon fill="#bbdefb" stroke="transparent" points="8.5,-569.5 8.5,-588.5 82.5,-588.5 82.5,-569.5 8.5,-569.5"/>
          <polygon fill="none" stroke="black" points="8.5,-569.5 8.5,-588.5 82.5,-588.5 82.5,-569.5 8.5,-569.5"/>
          <text text-anchor="start" x="38.5" y="-575.9" font-family="Roboto" font-size="12.00">cc</text>
          <polygon fill="#bbdefb" stroke="transparent" points="82.5,-569.5 82.5,-588.5 237.5,-588.5 237.5,-569.5 82.5,-569.5"/>
          <polygon fill="none" stroke="black" points="82.5,-569.5 82.5,-588.5 237.5,-588.5 237.5,-569.5 82.5,-569.5"/>
          <text text-anchor="start" x="125" y="-575.9" font-family="Roboto" font-size="12.00">VARCHAR ()</text>
          <polygon fill="#bbdefb" stroke="transparent" points="8.5,-550.5 8.5,-569.5 82.5,-569.5 82.5,-550.5 8.5,-550.5"/>
          <polygon fill="none" stroke="black" points="8.5,-550.5 8.5,-569.5 82.5,-569.5 82.5,-550.5 8.5,-550.5"/>
          <text text-anchor="start" x="34.5" y="-556.9" font-family="Roboto" font-size="12.00">bcc</text>
          <polygon fill="#bbdefb" stroke="transparent" points="82.5,-550.5 82.5,-569.5 237.5,-569.5 237.5,-550.5 82.5,-550.5"/>
          <polygon fill="none" stroke="black" points="82.5,-550.5 82.5,-569.5 237.5,-569.5 237.5,-550.5 82.5,-550.5"/>
          <text text-anchor="start" x="125" y="-556.9" font-family="Roboto" font-size="12.00">VARCHAR ()</text>
          <polygon fill="#bbdefb" stroke="transparent" points="8.5,-531.5 8.5,-550.5 82.5,-550.5 82.5,-531.5 8.5,-531.5"/>
          <polygon fill="none" stroke="black" points="8.5,-531.5 8.5,-550.5 82.5,-550.5 82.5,-531.5 8.5,-531.5"/>
          <text text-anchor="start" x="12.5" y="-537.9" font-family="Roboto" font-size="12.00">tracking_id</text>
          <polygon fill="#bbdefb" stroke="transparent" points="82.5,-531.5 82.5,-550.5 237.5,-550.5 237.5,-531.5 82.5,-531.5"/>
          <polygon fill="none" stroke="black" points="82.5,-531.5 82.5,-550.5 237.5,-550.5 237.5,-531.5 82.5,-531.5"/>
          <text text-anchor="start" x="125" y="-537.9" font-family="Roboto" font-size="12.00">VARCHAR ()</text>
          <polygon fill="#bbdefb" stroke="transparent" points="8.5,-512.5 8.5,-531.5 82.5,-531.5 82.5,-512.5 8.5,-512.5"/>
          <polygon fill="none" stroke="black" points="8.5,-512.5 8.5,-531.5 82.5,-531.5 82.5,-512.5 8.5,-512.5"/>
          <text text-anchor="start" x="36" y="-518.9" font-family="Roboto" font-size="12.00">uid</text>
          <polygon fill="#bbdefb" stroke="transparent" points="82.5,-512.5 82.5,-531.5 237.5,-531.5 237.5,-512.5 82.5,-512.5"/>
          <polygon fill="none" stroke="black" points="82.5,-512.5 82.5,-531.5 237.5,-531.5 237.5,-512.5 82.5,-512.5"/>
          <text text-anchor="start" x="117.5" y="-518.9" font-family="Roboto" font-size="12.00">VARCHAR (PK)</text>
          <polygon fill="#bbdefb" stroke="transparent" points="8.5,-493.5 8.5,-512.5 82.5,-512.5 82.5,-493.5 8.5,-493.5"/>
          <polygon fill="none" stroke="black" points="8.5,-493.5 8.5,-512.5 82.5,-512.5 82.5,-493.5 8.5,-493.5"/>
          <text text-anchor="start" x="40" y="-499.9" font-family="Roboto" font-size="12.00">id</text>
          <polygon fill="#bbdefb" stroke="transparent" points="82.5,-493.5 82.5,-512.5 237.5,-512.5 237.5,-493.5 82.5,-493.5"/>
          <polygon fill="none" stroke="black" points="82.5,-493.5 82.5,-512.5 237.5,-512.5 237.5,-493.5 82.5,-493.5"/>
          <text text-anchor="start" x="85.5" y="-499.9" font-family="Roboto" font-size="12.00">VARCHAR (Unique,Index)</text>
          <polygon fill="#bbdefb" stroke="transparent" points="8.5,-474.5 8.5,-493.5 82.5,-493.5 82.5,-474.5 8.5,-474.5"/>
          <polygon fill="none" stroke="black" points="8.5,-474.5 8.5,-493.5 82.5,-493.5 82.5,-474.5 8.5,-474.5"/>
          <text text-anchor="start" x="13.5" y="-480.9" font-family="Roboto" font-size="12.00">created_at</text>
          <polygon fill="#bbdefb" stroke="transparent" points="82.5,-474.5 82.5,-493.5 237.5,-493.5 237.5,-474.5 82.5,-474.5"/>
          <polygon fill="none" stroke="black" points="82.5,-474.5 82.5,-493.5 237.5,-493.5 237.5,-474.5 82.5,-474.5"/>
          <text text-anchor="start" x="123" y="-480.9" font-family="Roboto" font-size="12.00">DATETIME ()</text>
          <polygon fill="#bbdefb" stroke="transparent" points="8.5,-455.5 8.5,-474.5 82.5,-474.5 82.5,-455.5 8.5,-455.5"/>
          <polygon fill="none" stroke="black" points="8.5,-455.5 8.5,-474.5 82.5,-474.5 82.5,-455.5 8.5,-455.5"/>
          <text text-anchor="start" x="11.5" y="-461.9" font-family="Roboto" font-size="12.00">updated_at</text>
          <polygon fill="#bbdefb" stroke="transparent" points="82.5,-455.5 82.5,-474.5 237.5,-474.5 237.5,-455.5 82.5,-455.5"/>
          <polygon fill="none" stroke="black" points="82.5,-455.5 82.5,-474.5 237.5,-474.5 237.5,-455.5 82.5,-455.5"/>
          <text text-anchor="start" x="123" y="-461.9" font-family="Roboto" font-size="12.00">DATETIME ()</text>
        </a>
      </g>
    </g>
    <!-- Tag -->
    <g id="node2" class="table-hover">
      <title>Tag</title>
      <g id="a_node2">
        <a xlink:href="http://Tag_details.html" xlink:title="&lt;TABLE&gt;">
          <polygon fill="#3f51b5" stroke="transparent" points="271.5,-617.5 271.5,-636.5 500.5,-636.5 500.5,-617.5 271.5,-617.5"/>
          <polygon fill="none" stroke="black" points="271.5,-617.5 271.5,-636.5 500.5,-636.5 500.5,-617.5 271.5,-617.5"/>
          <text text-anchor="start" x="375.5" y="-623.9" font-family="Roboto" font-size="12.00" fill="white">Tag</text>
          <polygon fill="#bbdefb" stroke="transparent" points="271.5,-598.5 271.5,-617.5 345.5,-617.5 345.5,-598.5 271.5,-598.5"/>
          <polygon fill="none" stroke="black" points="271.5,-598.5 271.5,-617.5 345.5,-617.5 345.5,-598.5 271.5,-598.5"/>
          <text text-anchor="start" x="291" y="-604.9" font-family="Roboto" font-size="12.00">name</text>
          <polygon fill="#bbdefb" stroke="transparent" points="345.5,-598.5 345.5,-617.5 500.5,-617.5 500.5,-598.5 345.5,-598.5"/>
          <polygon fill="none" stroke="black" points="345.5,-598.5 345.5,-617.5 500.5,-617.5 500.5,-598.5 345.5,-598.5"/>
          <text text-anchor="start" x="348.5" y="-604.9" font-family="Roboto" font-size="12.00">VARCHAR (Unique,Index)</text>
          <polygon fill="#bbdefb" stroke="transparent" points="271.5,-579.5 271.5,-598.5 345.5,-598.5 345.5,-579.5 271.5,-579.5"/>
          <polygon fill="none" stroke="black" points="271.5,-579.5 271.5,-598.5 345.5,-598.5 345.5,-579.5 271.5,-579.5"/>
          <text text-anchor="start" x="299" y="-585.9" font-family="Roboto" font-size="12.00">uid</text>
          <polygon fill="#bbdefb" stroke="transparent" points="345.5,-579.5 345.5,-598.5 500.5,-598.5 500.5,-579.5 345.5,-579.5"/>
          <polygon fill="none" stroke="black" points="345.5,-579.5 345.5,-598.5 500.5,-598.5 500.5,-579.5 345.5,-579.5"/>
          <text text-anchor="start" x="380.5" y="-585.9" font-family="Roboto" font-size="12.00">VARCHAR (PK)</text>
          <polygon fill="#bbdefb" stroke="transparent" points="271.5,-560.5 271.5,-579.5 345.5,-579.5 345.5,-560.5 271.5,-560.5"/>
          <polygon fill="none" stroke="black" points="271.5,-560.5 271.5,-579.5 345.5,-579.5 345.5,-560.5 271.5,-560.5"/>
          <text text-anchor="start" x="303" y="-566.9" font-family="Roboto" font-size="12.00">id</text>
          <polygon fill="#bbdefb" stroke="transparent" points="345.5,-560.5 345.5,-579.5 500.5,-579.5 500.5,-560.5 345.5,-560.5"/>
          <polygon fill="none" stroke="black" points="345.5,-560.5 345.5,-579.5 500.5,-579.5 500.5,-560.5 345.5,-560.5"/>
          <text text-anchor="start" x="348.5" y="-566.9" font-family="Roboto" font-size="12.00">VARCHAR (Unique,Index)</text>
          <polygon fill="#bbdefb" stroke="transparent" points="271.5,-541.5 271.5,-560.5 345.5,-560.5 345.5,-541.5 271.5,-541.5"/>
          <polygon fill="none" stroke="black" points="271.5,-541.5 271.5,-560.5 345.5,-560.5 345.5,-541.5 271.5,-541.5"/>
          <text text-anchor="start" x="276.5" y="-547.9" font-family="Roboto" font-size="12.00">created_at</text>
          <polygon fill="#bbdefb" stroke="transparent" points="345.5,-541.5 345.5,-560.5 500.5,-560.5 500.5,-541.5 345.5,-541.5"/>
          <polygon fill="none" stroke="black" points="345.5,-541.5 345.5,-560.5 500.5,-560.5 500.5,-541.5 345.5,-541.5"/>
          <text text-anchor="start" x="386" y="-547.9" font-family="Roboto" font-size="12.00">DATETIME ()</text>
          <polygon fill="#bbdefb" stroke="transparent" points="271.5,-522.5 271.5,-541.5 345.5,-541.5 345.5,-522.5 271.5,-522.5"/>
          <polygon fill="none" stroke="black" points="271.5,-522.5 271.5,-541.5 345.5,-541.5 345.5,-522.5 271.5,-522.5"/>
          <text text-anchor="start" x="274.5" y="-528.9" font-family="Roboto" font-size="12.00">updated_at</text>
          <polygon fill="#bbdefb" stroke="transparent" points="345.5,-522.5 345.5,-541.5 500.5,-541.5 500.5,-522.5 345.5,-522.5"/>
          <polygon fill="none" stroke="black" points="345.5,-522.5 345.5,-541.5 500.5,-541.5 500.5,-522.5 345.5,-522.5"/>
          <text text-anchor="start" x="386" y="-528.9" font-family="Roboto" font-size="12.00">DATETIME ()</text>
        </a>
      </g>
    </g>
    <!-- Team -->
    <g id="node3" class="table-hover">
      <title>Team</title>
      <g id="a_node3">
        <a xlink:href="http://Team_details.html" xlink:title="&lt;TABLE&gt;">
          <polygon fill="#3f51b5" stroke="transparent" points="264.5,-362.5 264.5,-381.5 507.5,-381.5 507.5,-362.5 264.5,-362.5"/>
          <polygon fill="none" stroke="black" points="264.5,-362.5 264.5,-381.5 507.5,-381.5 507.5,-362.5 264.5,-362.5"/>
          <text text-anchor="start" x="369.5" y="-368.9" font-family="Roboto" font-size="12.00" fill="white">Team</text>
          <polygon fill="#bbdefb" stroke="transparent" points="264.5,-343.5 264.5,-362.5 352.5,-362.5 352.5,-343.5 264.5,-343.5"/>
          <polygon fill="none" stroke="black" points="264.5,-343.5 264.5,-362.5 352.5,-362.5 352.5,-343.5 264.5,-343.5"/>
          <text text-anchor="start" x="291" y="-349.9" font-family="Roboto" font-size="12.00">name</text>
          <polygon fill="#bbdefb" stroke="transparent" points="352.5,-343.5 352.5,-362.5 507.5,-362.5 507.5,-343.5 352.5,-343.5"/>
          <polygon fill="none" stroke="black" points="352.5,-343.5 352.5,-362.5 507.5,-362.5 507.5,-343.5 352.5,-343.5"/>
          <text text-anchor="start" x="355.5" y="-349.9" font-family="Roboto" font-size="12.00">VARCHAR (Unique,Index)</text>
          <polygon fill="#bbdefb" stroke="transparent" points="264.5,-324.5 264.5,-343.5 352.5,-343.5 352.5,-324.5 264.5,-324.5"/>
          <polygon fill="none" stroke="black" points="264.5,-324.5 264.5,-343.5 352.5,-343.5 352.5,-324.5 264.5,-324.5"/>
          <text text-anchor="start" x="267.5" y="-330.9" font-family="Roboto" font-size="12.00">headquarters</text>
          <polygon fill="#bbdefb" stroke="transparent" points="352.5,-324.5 352.5,-343.5 507.5,-343.5 507.5,-324.5 352.5,-324.5"/>
          <polygon fill="none" stroke="black" points="352.5,-324.5 352.5,-343.5 507.5,-343.5 507.5,-324.5 352.5,-324.5"/>
          <text text-anchor="start" x="395" y="-330.9" font-family="Roboto" font-size="12.00">VARCHAR ()</text>
          <polygon fill="#bbdefb" stroke="transparent" points="264.5,-305.5 264.5,-324.5 352.5,-324.5 352.5,-305.5 264.5,-305.5"/>
          <polygon fill="none" stroke="black" points="264.5,-305.5 264.5,-324.5 352.5,-324.5 352.5,-305.5 264.5,-305.5"/>
          <text text-anchor="start" x="299" y="-311.9" font-family="Roboto" font-size="12.00">uid</text>
          <polygon fill="#bbdefb" stroke="transparent" points="352.5,-305.5 352.5,-324.5 507.5,-324.5 507.5,-305.5 352.5,-305.5"/>
          <polygon fill="none" stroke="black" points="352.5,-305.5 352.5,-324.5 507.5,-324.5 507.5,-305.5 352.5,-305.5"/>
          <text text-anchor="start" x="387.5" y="-311.9" font-family="Roboto" font-size="12.00">VARCHAR (PK)</text>
          <polygon fill="#bbdefb" stroke="transparent" points="264.5,-286.5 264.5,-305.5 352.5,-305.5 352.5,-286.5 264.5,-286.5"/>
          <polygon fill="none" stroke="black" points="264.5,-286.5 264.5,-305.5 352.5,-305.5 352.5,-286.5 264.5,-286.5"/>
          <text text-anchor="start" x="303" y="-292.9" font-family="Roboto" font-size="12.00">id</text>
          <polygon fill="#bbdefb" stroke="transparent" points="352.5,-286.5 352.5,-305.5 507.5,-305.5 507.5,-286.5 352.5,-286.5"/>
          <polygon fill="none" stroke="black" points="352.5,-286.5 352.5,-305.5 507.5,-305.5 507.5,-286.5 352.5,-286.5"/>
          <text text-anchor="start" x="355.5" y="-292.9" font-family="Roboto" font-size="12.00">VARCHAR (Unique,Index)</text>
          <polygon fill="#bbdefb" stroke="transparent" points="264.5,-267.5 264.5,-286.5 352.5,-286.5 352.5,-267.5 264.5,-267.5"/>
          <polygon fill="none" stroke="black" points="264.5,-267.5 264.5,-286.5 352.5,-286.5 352.5,-267.5 264.5,-267.5"/>
          <text text-anchor="start" x="276.5" y="-273.9" font-family="Roboto" font-size="12.00">created_at</text>
          <polygon fill="#bbdefb" stroke="transparent" points="352.5,-267.5 352.5,-286.5 507.5,-286.5 507.5,-267.5 352.5,-267.5"/>
          <polygon fill="none" stroke="black" points="352.5,-267.5 352.5,-286.5 507.5,-286.5 507.5,-267.5 352.5,-267.5"/>
          <text text-anchor="start" x="393" y="-273.9" font-family="Roboto" font-size="12.00">DATETIME ()</text>
          <polygon fill="#bbdefb" stroke="transparent" points="264.5,-248.5 264.5,-267.5 352.5,-267.5 352.5,-248.5 264.5,-248.5"/>
          <polygon fill="none" stroke="black" points="264.5,-248.5 264.5,-267.5 352.5,-267.5 352.5,-248.5 264.5,-248.5"/>
          <text text-anchor="start" x="274.5" y="-254.9" font-family="Roboto" font-size="12.00">updated_at</text>
          <polygon fill="#bbdefb" stroke="transparent" points="352.5,-248.5 352.5,-267.5 507.5,-267.5 507.5,-248.5 352.5,-248.5"/>
          <polygon fill="none" stroke="black" points="352.5,-248.5 352.5,-267.5 507.5,-267.5 507.5,-248.5 352.5,-248.5"/>
          <text text-anchor="start" x="393" y="-254.9" font-family="Roboto" font-size="12.00">DATETIME ()</text>
        </a>
      </g>
    </g>
    <!-- Tag&#45;&gt;Team -->
    <g id="edge1" class="edge-hover edge-from-None edge-to-None">
      <title>Tag-&gt;Team</title>
      <g id="a_edge1">
        <a xlink:title="Relation between Tag and Team">
          <path fill="none" stroke="#1e88e5" stroke-dasharray="5,2" d="M367.81,-518.35C360.11,-484.72 353.97,-442.04 359.5,-404 359.87,-401.46 360.3,-398.89 360.77,-396.31"/>
          <polygon fill="#1e88e5" stroke="#1e88e5" points="364.24,-396.81 362.83,-386.31 357.39,-395.4 364.24,-396.81"/>
        </a>
      </g>
      <text text-anchor="middle" x="375" y="-407" font-family="Roboto" font-size="10.00">teams</text>
    </g>
    <!-- Team&#45;&gt;Tag -->
    <g id="edge3" class="edge-hover edge-from-None edge-to-None">
      <title>Team-&gt;Tag</title>
      <g id="a_edge3">
        <a xlink:title="Relation between Team and Tag">
          <path fill="none" stroke="#1e88e5" stroke-dasharray="5,2" d="M389.84,-386.22C390.11,-392.23 390.34,-398.22 390.5,-404 391.48,-438.31 390.61,-476.41 389.34,-508.23"/>
          <polygon fill="#1e88e5" stroke="#1e88e5" points="385.84,-508.2 388.92,-518.33 392.84,-508.49 385.84,-508.2"/>
        </a>
      </g>
      <text text-anchor="middle" x="402.5" y="-407" font-family="Roboto" font-size="10.00">tags</text>
    </g>
    <!-- User -->
    <g id="node6" class="table-hover">
      <title>User</title>
      <g id="a_node6">
        <a xlink:href="http://User_details.html" xlink:title="&lt;TABLE&gt;">
          <polygon fill="#3f51b5" stroke="transparent" points="271.5,-175 271.5,-194 500.5,-194 500.5,-175 271.5,-175"/>
          <polygon fill="none" stroke="black" points="271.5,-175 271.5,-194 500.5,-194 500.5,-175 271.5,-175"/>
          <text text-anchor="start" x="372" y="-181.4" font-family="Roboto" font-size="12.00" fill="white">User</text>
          <polygon fill="#bbdefb" stroke="transparent" points="271.5,-156 271.5,-175 345.5,-175 345.5,-156 271.5,-156"/>
          <polygon fill="none" stroke="black" points="271.5,-156 271.5,-175 345.5,-175 345.5,-156 271.5,-156"/>
          <text text-anchor="start" x="291" y="-162.4" font-family="Roboto" font-size="12.00">name</text>
          <polygon fill="#bbdefb" stroke="transparent" points="345.5,-156 345.5,-175 500.5,-175 500.5,-156 345.5,-156"/>
          <polygon fill="none" stroke="black" points="345.5,-156 345.5,-175 500.5,-175 500.5,-156 345.5,-156"/>
          <text text-anchor="start" x="348.5" y="-162.4" font-family="Roboto" font-size="12.00">VARCHAR (Unique,Index)</text>
          <polygon fill="#bbdefb" stroke="transparent" points="271.5,-137 271.5,-156 345.5,-156 345.5,-137 271.5,-137"/>
          <polygon fill="none" stroke="black" points="271.5,-137 271.5,-156 345.5,-156 345.5,-137 271.5,-137"/>
          <text text-anchor="start" x="276.5" y="-143.4" font-family="Roboto" font-size="12.00">first_name</text>
          <polygon fill="#bbdefb" stroke="transparent" points="345.5,-137 345.5,-156 500.5,-156 500.5,-137 345.5,-137"/>
          <polygon fill="none" stroke="black" points="345.5,-137 345.5,-156 500.5,-156 500.5,-137 345.5,-137"/>
          <text text-anchor="start" x="388" y="-143.4" font-family="Roboto" font-size="12.00">VARCHAR ()</text>
          <polygon fill="#bbdefb" stroke="transparent" points="271.5,-118 271.5,-137 345.5,-137 345.5,-118 271.5,-118"/>
          <polygon fill="none" stroke="black" points="271.5,-118 271.5,-137 345.5,-137 345.5,-118 271.5,-118"/>
          <text text-anchor="start" x="277.5" y="-124.4" font-family="Roboto" font-size="12.00">last_name</text>
          <polygon fill="#bbdefb" stroke="transparent" points="345.5,-118 345.5,-137 500.5,-137 500.5,-118 345.5,-118"/>
          <polygon fill="none" stroke="black" points="345.5,-118 345.5,-137 500.5,-137 500.5,-118 345.5,-118"/>
          <text text-anchor="start" x="388" y="-124.4" font-family="Roboto" font-size="12.00">VARCHAR ()</text>
          <polygon fill="#bbdefb" stroke="transparent" points="271.5,-99 271.5,-118 345.5,-118 345.5,-99 271.5,-99"/>
          <polygon fill="none" stroke="black" points="271.5,-99 271.5,-118 345.5,-118 345.5,-99 271.5,-99"/>
          <text text-anchor="start" x="291.5" y="-105.4" font-family="Roboto" font-size="12.00">email</text>
          <polygon fill="#bbdefb" stroke="transparent" points="345.5,-99 345.5,-118 500.5,-118 500.5,-99 345.5,-99"/>
          <polygon fill="none" stroke="black" points="345.5,-99 345.5,-118 500.5,-118 500.5,-99 345.5,-99"/>
          <text text-anchor="start" x="348.5" y="-105.4" font-family="Roboto" font-size="12.00">VARCHAR (Unique,Index)</text>
          <polygon fill="#bbdefb" stroke="transparent" points="271.5,-80 271.5,-99 345.5,-99 345.5,-80 271.5,-80"/>
          <polygon fill="none" stroke="black" points="271.5,-80 271.5,-99 345.5,-99 345.5,-80 271.5,-80"/>
          <text text-anchor="start" x="299" y="-86.4" font-family="Roboto" font-size="12.00">uid</text>
          <polygon fill="#bbdefb" stroke="transparent" points="345.5,-80 345.5,-99 500.5,-99 500.5,-80 345.5,-80"/>
          <polygon fill="none" stroke="black" points="345.5,-80 345.5,-99 500.5,-99 500.5,-80 345.5,-80"/>
          <text text-anchor="start" x="380.5" y="-86.4" font-family="Roboto" font-size="12.00">VARCHAR (PK)</text>
          <polygon fill="#bbdefb" stroke="transparent" points="271.5,-61 271.5,-80 345.5,-80 345.5,-61 271.5,-61"/>
          <polygon fill="none" stroke="black" points="271.5,-61 271.5,-80 345.5,-80 345.5,-61 271.5,-61"/>
          <text text-anchor="start" x="303" y="-67.4" font-family="Roboto" font-size="12.00">id</text>
          <polygon fill="#bbdefb" stroke="transparent" points="345.5,-61 345.5,-80 500.5,-80 500.5,-61 345.5,-61"/>
          <polygon fill="none" stroke="black" points="345.5,-61 345.5,-80 500.5,-80 500.5,-61 345.5,-61"/>
          <text text-anchor="start" x="348.5" y="-67.4" font-family="Roboto" font-size="12.00">VARCHAR (Unique,Index)</text>
          <polygon fill="#bbdefb" stroke="transparent" points="271.5,-42 271.5,-61 345.5,-61 345.5,-42 271.5,-42"/>
          <polygon fill="none" stroke="black" points="271.5,-42 271.5,-61 345.5,-61 345.5,-42 271.5,-42"/>
          <text text-anchor="start" x="276.5" y="-48.4" font-family="Roboto" font-size="12.00">created_at</text>
          <polygon fill="#bbdefb" stroke="transparent" points="345.5,-42 345.5,-61 500.5,-61 500.5,-42 345.5,-42"/>
          <polygon fill="none" stroke="black" points="345.5,-42 345.5,-61 500.5,-61 500.5,-42 345.5,-42"/>
          <text text-anchor="start" x="386" y="-48.4" font-family="Roboto" font-size="12.00">DATETIME ()</text>
          <polygon fill="#bbdefb" stroke="transparent" points="271.5,-23 271.5,-42 345.5,-42 345.5,-23 271.5,-23"/>
          <polygon fill="none" stroke="black" points="271.5,-23 271.5,-42 345.5,-42 345.5,-23 271.5,-23"/>
          <text text-anchor="start" x="274.5" y="-29.4" font-family="Roboto" font-size="12.00">updated_at</text>
          <polygon fill="#bbdefb" stroke="transparent" points="345.5,-23 345.5,-42 500.5,-42 500.5,-23 345.5,-23"/>
          <polygon fill="none" stroke="black" points="345.5,-23 345.5,-42 500.5,-42 500.5,-23 345.5,-23"/>
          <text text-anchor="start" x="386" y="-29.4" font-family="Roboto" font-size="12.00">DATETIME ()</text>
          <polygon fill="#bbdefb" stroke="transparent" points="271.5,-4 271.5,-23 345.5,-23 345.5,-4 271.5,-4"/>
          <polygon fill="none" stroke="black" points="271.5,-4 271.5,-23 345.5,-23 345.5,-4 271.5,-4"/>
          <text text-anchor="start" x="284" y="-10.4" font-family="Roboto" font-size="12.00">team_id</text>
          <polygon fill="#bbdefb" stroke="transparent" points="345.5,-4 345.5,-23 500.5,-23 500.5,-4 345.5,-4"/>
          <polygon fill="none" stroke="black" points="345.5,-4 345.5,-23 500.5,-23 500.5,-4 345.5,-4"/>
          <text text-anchor="start" x="388" y="-10.4" font-family="Roboto" font-size="12.00">VARCHAR ()</text>
        </a>
      </g>
    </g>
    <!-- Team&#45;&gt;User -->
    <g id="edge2" class="edge-hover edge-from-None edge-to-None">
      <title>Team-&gt;User</title>
      <g id="a_edge2">
        <a xlink:title="Relation between Team and User">
          <path fill="none" stroke="#1e88e5" stroke-dasharray="5,2" d="M364.57,-244.64C363.33,-238.71 362.28,-232.78 361.5,-227 360.69,-221.02 360.32,-214.89 360.3,-208.71"/>
          <polygon fill="#1e88e5" stroke="#1e88e5" points="363.81,-208.38 360.59,-198.29 356.82,-208.19 363.81,-208.38"/>
        </a>
      </g>
      <text text-anchor="middle" x="375" y="-219" font-family="Roboto" font-size="10.00">users</text>
    </g>
    <!-- TagTeamLink -->
    <g id="node4" class="table-hover">
      <title>TagTeamLink</title>
      <g id="a_node4">
        <a xlink:href="http://TagTeamLink_details.html" xlink:title="&lt;TABLE&gt;">
          <polygon fill="#3f51b5" stroke="transparent" points="534.5,-588.5 534.5,-607.5 680.5,-607.5 680.5,-588.5 534.5,-588.5"/>
          <polygon fill="none" stroke="black" points="534.5,-588.5 534.5,-607.5 680.5,-607.5 680.5,-588.5 534.5,-588.5"/>
          <text text-anchor="start" x="569" y="-594.9" font-family="Roboto" font-size="12.00" fill="white">TagTeamLink</text>
          <polygon fill="#bbdefb" stroke="transparent" points="534.5,-569.5 534.5,-588.5 589.5,-588.5 589.5,-569.5 534.5,-569.5"/>
          <polygon fill="none" stroke="black" points="534.5,-569.5 534.5,-588.5 589.5,-588.5 589.5,-569.5 534.5,-569.5"/>
          <text text-anchor="start" x="543.5" y="-575.9" font-family="Roboto" font-size="12.00">tag_id</text>
          <polygon fill="#bbdefb" stroke="transparent" points="589.5,-569.5 589.5,-588.5 680.5,-588.5 680.5,-569.5 589.5,-569.5"/>
          <polygon fill="none" stroke="black" points="589.5,-569.5 589.5,-588.5 680.5,-588.5 680.5,-569.5 589.5,-569.5"/>
          <text text-anchor="start" x="592.5" y="-575.9" font-family="Roboto" font-size="12.00">VARCHAR (PK)</text>
          <polygon fill="#bbdefb" stroke="transparent" points="534.5,-550.5 534.5,-569.5 589.5,-569.5 589.5,-550.5 534.5,-550.5"/>
          <polygon fill="none" stroke="black" points="534.5,-550.5 534.5,-569.5 589.5,-569.5 589.5,-550.5 534.5,-550.5"/>
          <text text-anchor="start" x="537.5" y="-556.9" font-family="Roboto" font-size="12.00">team_id</text>
          <polygon fill="#bbdefb" stroke="transparent" points="589.5,-550.5 589.5,-569.5 680.5,-569.5 680.5,-550.5 589.5,-550.5"/>
          <polygon fill="none" stroke="black" points="589.5,-550.5 589.5,-569.5 680.5,-569.5 680.5,-550.5 589.5,-550.5"/>
          <text text-anchor="start" x="592.5" y="-556.9" font-family="Roboto" font-size="12.00">VARCHAR (PK)</text>
        </a>
      </g>
    </g>
    <!-- Task -->
    <g id="node5" class="table-hover">
      <title>Task</title>
      <g id="a_node5">
        <a xlink:href="http://Task_details.html" xlink:title="&lt;TABLE&gt;">
          <polygon fill="#3f51b5" stroke="transparent" points="715.5,-702.5 715.5,-721.5 982.5,-721.5 982.5,-702.5 715.5,-702.5"/>
          <polygon fill="none" stroke="black" points="715.5,-702.5 715.5,-721.5 982.5,-721.5 982.5,-702.5 715.5,-702.5"/>
          <text text-anchor="start" x="836" y="-708.9" font-family="Roboto" font-size="12.00" fill="white">Task</text>
          <polygon fill="#bbdefb" stroke="transparent" points="715.5,-683.5 715.5,-702.5 827.5,-702.5 827.5,-683.5 715.5,-683.5"/>
          <polygon fill="none" stroke="black" points="715.5,-683.5 715.5,-702.5 827.5,-702.5 827.5,-683.5 715.5,-683.5"/>
          <text text-anchor="start" x="754" y="-689.9" font-family="Roboto" font-size="12.00">name</text>
          <polygon fill="#bbdefb" stroke="transparent" points="827.5,-683.5 827.5,-702.5 982.5,-702.5 982.5,-683.5 827.5,-683.5"/>
          <polygon fill="none" stroke="black" points="827.5,-683.5 827.5,-702.5 982.5,-702.5 982.5,-683.5 827.5,-683.5"/>
          <text text-anchor="start" x="870" y="-689.9" font-family="Roboto" font-size="12.00">VARCHAR ()</text>
          <polygon fill="#bbdefb" stroke="transparent" points="715.5,-664.5 715.5,-683.5 827.5,-683.5 827.5,-664.5 715.5,-664.5"/>
          <polygon fill="none" stroke="black" points="715.5,-664.5 715.5,-683.5 827.5,-683.5 827.5,-664.5 715.5,-664.5"/>
          <text text-anchor="start" x="758" y="-670.9" font-family="Roboto" font-size="12.00">type</text>
          <polygon fill="#bbdefb" stroke="transparent" points="827.5,-664.5 827.5,-683.5 982.5,-683.5 982.5,-664.5 827.5,-664.5"/>
          <polygon fill="none" stroke="black" points="827.5,-664.5 827.5,-683.5 982.5,-683.5 982.5,-664.5 827.5,-664.5"/>
          <text text-anchor="start" x="870" y="-670.9" font-family="Roboto" font-size="12.00">VARCHAR ()</text>
          <polygon fill="#bbdefb" stroke="transparent" points="715.5,-645.5 715.5,-664.5 827.5,-664.5 827.5,-645.5 715.5,-645.5"/>
          <polygon fill="none" stroke="black" points="715.5,-645.5 715.5,-664.5 827.5,-664.5 827.5,-645.5 715.5,-645.5"/>
          <text text-anchor="start" x="753" y="-651.9" font-family="Roboto" font-size="12.00">status</text>
          <polygon fill="#bbdefb" stroke="transparent" points="827.5,-645.5 827.5,-664.5 982.5,-664.5 982.5,-645.5 827.5,-645.5"/>
          <polygon fill="none" stroke="black" points="827.5,-645.5 827.5,-664.5 982.5,-664.5 982.5,-645.5 827.5,-645.5"/>
          <text text-anchor="start" x="858" y="-651.9" font-family="Roboto" font-size="12.00">VARCHAR(11) ()</text>
          <polygon fill="#bbdefb" stroke="transparent" points="715.5,-626.5 715.5,-645.5 827.5,-645.5 827.5,-626.5 715.5,-626.5"/>
          <polygon fill="none" stroke="black" points="715.5,-626.5 715.5,-645.5 827.5,-645.5 827.5,-626.5 715.5,-626.5"/>
          <text text-anchor="start" x="738" y="-632.9" font-family="Roboto" font-size="12.00">description</text>
          <polygon fill="#bbdefb" stroke="transparent" points="827.5,-626.5 827.5,-645.5 982.5,-645.5 982.5,-626.5 827.5,-626.5"/>
          <polygon fill="none" stroke="black" points="827.5,-626.5 827.5,-645.5 982.5,-645.5 982.5,-626.5 827.5,-626.5"/>
          <text text-anchor="start" x="870" y="-632.9" font-family="Roboto" font-size="12.00">VARCHAR ()</text>
          <polygon fill="#bbdefb" stroke="transparent" points="715.5,-607.5 715.5,-626.5 827.5,-626.5 827.5,-607.5 715.5,-607.5"/>
          <polygon fill="none" stroke="black" points="715.5,-607.5 715.5,-626.5 827.5,-626.5 827.5,-607.5 715.5,-607.5"/>
          <text text-anchor="start" x="738" y="-613.9" font-family="Roboto" font-size="12.00">created_by</text>
          <polygon fill="#bbdefb" stroke="transparent" points="827.5,-607.5 827.5,-626.5 982.5,-626.5 982.5,-607.5 827.5,-607.5"/>
          <polygon fill="none" stroke="black" points="827.5,-607.5 827.5,-626.5 982.5,-626.5 982.5,-607.5 827.5,-607.5"/>
          <text text-anchor="start" x="870" y="-613.9" font-family="Roboto" font-size="12.00">VARCHAR ()</text>
          <polygon fill="#bbdefb" stroke="transparent" points="715.5,-588.5 715.5,-607.5 827.5,-607.5 827.5,-588.5 715.5,-588.5"/>
          <polygon fill="none" stroke="black" points="715.5,-588.5 715.5,-607.5 827.5,-607.5 827.5,-588.5 715.5,-588.5"/>
          <text text-anchor="start" x="744" y="-594.9" font-family="Roboto" font-size="12.00">message</text>
          <polygon fill="#bbdefb" stroke="transparent" points="827.5,-588.5 827.5,-607.5 982.5,-607.5 982.5,-588.5 827.5,-588.5"/>
          <polygon fill="none" stroke="black" points="827.5,-588.5 827.5,-607.5 982.5,-607.5 982.5,-588.5 827.5,-588.5"/>
          <text text-anchor="start" x="870" y="-594.9" font-family="Roboto" font-size="12.00">VARCHAR ()</text>
          <polygon fill="#bbdefb" stroke="transparent" points="715.5,-569.5 715.5,-588.5 827.5,-588.5 827.5,-569.5 715.5,-569.5"/>
          <polygon fill="none" stroke="black" points="715.5,-569.5 715.5,-588.5 827.5,-588.5 827.5,-569.5 715.5,-569.5"/>
          <text text-anchor="start" x="718.5" y="-575.9" font-family="Roboto" font-size="12.00">email_notification</text>
          <polygon fill="#bbdefb" stroke="transparent" points="827.5,-569.5 827.5,-588.5 982.5,-588.5 982.5,-569.5 827.5,-569.5"/>
          <polygon fill="none" stroke="black" points="827.5,-569.5 827.5,-588.5 982.5,-588.5 982.5,-569.5 827.5,-569.5"/>
          <text text-anchor="start" x="883.5" y="-575.9" font-family="Roboto" font-size="12.00">JSON ()</text>
          <polygon fill="#bbdefb" stroke="transparent" points="715.5,-550.5 715.5,-569.5 827.5,-569.5 827.5,-550.5 715.5,-550.5"/>
          <polygon fill="none" stroke="black" points="715.5,-550.5 715.5,-569.5 827.5,-569.5 827.5,-550.5 715.5,-550.5"/>
          <text text-anchor="start" x="748.5" y="-556.9" font-family="Roboto" font-size="12.00">context</text>
          <polygon fill="#bbdefb" stroke="transparent" points="827.5,-550.5 827.5,-569.5 982.5,-569.5 982.5,-550.5 827.5,-550.5"/>
          <polygon fill="none" stroke="black" points="827.5,-550.5 827.5,-569.5 982.5,-569.5 982.5,-550.5 827.5,-550.5"/>
          <text text-anchor="start" x="883.5" y="-556.9" font-family="Roboto" font-size="12.00">JSON ()</text>
          <polygon fill="#bbdefb" stroke="transparent" points="715.5,-531.5 715.5,-550.5 827.5,-550.5 827.5,-531.5 715.5,-531.5"/>
          <polygon fill="none" stroke="black" points="715.5,-531.5 715.5,-550.5 827.5,-550.5 827.5,-531.5 715.5,-531.5"/>
          <text text-anchor="start" x="762" y="-537.9" font-family="Roboto" font-size="12.00">uid</text>
          <polygon fill="#bbdefb" stroke="transparent" points="827.5,-531.5 827.5,-550.5 982.5,-550.5 982.5,-531.5 827.5,-531.5"/>
          <polygon fill="none" stroke="black" points="827.5,-531.5 827.5,-550.5 982.5,-550.5 982.5,-531.5 827.5,-531.5"/>
          <text text-anchor="start" x="862.5" y="-537.9" font-family="Roboto" font-size="12.00">VARCHAR (PK)</text>
          <polygon fill="#bbdefb" stroke="transparent" points="715.5,-512.5 715.5,-531.5 827.5,-531.5 827.5,-512.5 715.5,-512.5"/>
          <polygon fill="none" stroke="black" points="715.5,-512.5 715.5,-531.5 827.5,-531.5 827.5,-512.5 715.5,-512.5"/>
          <text text-anchor="start" x="766" y="-518.9" font-family="Roboto" font-size="12.00">id</text>
          <polygon fill="#bbdefb" stroke="transparent" points="827.5,-512.5 827.5,-531.5 982.5,-531.5 982.5,-512.5 827.5,-512.5"/>
          <polygon fill="none" stroke="black" points="827.5,-512.5 827.5,-531.5 982.5,-531.5 982.5,-512.5 827.5,-512.5"/>
          <text text-anchor="start" x="830.5" y="-518.9" font-family="Roboto" font-size="12.00">VARCHAR (Unique,Index)</text>
          <polygon fill="#bbdefb" stroke="transparent" points="715.5,-493.5 715.5,-512.5 827.5,-512.5 827.5,-493.5 715.5,-493.5"/>
          <polygon fill="none" stroke="black" points="715.5,-493.5 715.5,-512.5 827.5,-512.5 827.5,-493.5 715.5,-493.5"/>
          <text text-anchor="start" x="739.5" y="-499.9" font-family="Roboto" font-size="12.00">created_at</text>
          <polygon fill="#bbdefb" stroke="transparent" points="827.5,-493.5 827.5,-512.5 982.5,-512.5 982.5,-493.5 827.5,-493.5"/>
          <polygon fill="none" stroke="black" points="827.5,-493.5 827.5,-512.5 982.5,-512.5 982.5,-493.5 827.5,-493.5"/>
          <text text-anchor="start" x="868" y="-499.9" font-family="Roboto" font-size="12.00">DATETIME ()</text>
          <polygon fill="#bbdefb" stroke="transparent" points="715.5,-474.5 715.5,-493.5 827.5,-493.5 827.5,-474.5 715.5,-474.5"/>
          <polygon fill="none" stroke="black" points="715.5,-474.5 715.5,-493.5 827.5,-493.5 827.5,-474.5 715.5,-474.5"/>
          <text text-anchor="start" x="737.5" y="-480.9" font-family="Roboto" font-size="12.00">updated_at</text>
          <polygon fill="#bbdefb" stroke="transparent" points="827.5,-474.5 827.5,-493.5 982.5,-493.5 982.5,-474.5 827.5,-474.5"/>
          <polygon fill="none" stroke="black" points="827.5,-474.5 827.5,-493.5 982.5,-493.5 982.5,-474.5 827.5,-474.5"/>
          <text text-anchor="start" x="868" y="-480.9" font-family="Roboto" font-size="12.00">DATETIME ()</text>
          <polygon fill="#bbdefb" stroke="transparent" points="715.5,-455.5 715.5,-474.5 827.5,-474.5 827.5,-455.5 715.5,-455.5"/>
          <polygon fill="none" stroke="black" points="715.5,-455.5 715.5,-474.5 827.5,-474.5 827.5,-455.5 715.5,-455.5"/>
          <text text-anchor="start" x="743.5" y="-461.9" font-family="Roboto" font-size="12.00">ended_at</text>
          <polygon fill="#bbdefb" stroke="transparent" points="827.5,-455.5 827.5,-474.5 982.5,-474.5 982.5,-455.5 827.5,-455.5"/>
          <polygon fill="none" stroke="black" points="827.5,-455.5 827.5,-474.5 982.5,-474.5 982.5,-455.5 827.5,-455.5"/>
          <text text-anchor="start" x="868" y="-461.9" font-family="Roboto" font-size="12.00">DATETIME ()</text>
          <polygon fill="#bbdefb" stroke="transparent" points="715.5,-436.5 715.5,-455.5 827.5,-455.5 827.5,-436.5 715.5,-436.5"/>
          <polygon fill="none" stroke="black" points="715.5,-436.5 715.5,-455.5 827.5,-455.5 827.5,-436.5 715.5,-436.5"/>
          <text text-anchor="start" x="730.5" y="-442.9" font-family="Roboto" font-size="12.00">task_duration</text>
          <polygon fill="#bbdefb" stroke="transparent" points="827.5,-436.5 827.5,-455.5 982.5,-455.5 982.5,-436.5 827.5,-436.5"/>
          <polygon fill="none" stroke="black" points="827.5,-436.5 827.5,-455.5 982.5,-455.5 982.5,-436.5 827.5,-436.5"/>
          <text text-anchor="start" x="868" y="-442.9" font-family="Roboto" font-size="12.00">DATETIME ()</text>
        </a>
      </g>
    </g>
    <!-- User&#45;&gt;Team -->
    <g id="edge4" class="edge-hover edge-from-None edge-to-None">
      <title>User-&gt;Team</title>
      <g id="a_edge4">
        <a xlink:title="Relation between User and Team">
          <path fill="none" stroke="#1e88e5" stroke-dasharray="5,2" d="M388.61,-198.11C388.69,-207.87 388.66,-217.63 388.5,-227 388.46,-229.53 388.41,-232.09 388.35,-234.69"/>
          <polygon fill="#1e88e5" stroke="#1e88e5" points="384.85,-234.69 388.11,-244.78 391.85,-234.86 384.85,-234.69"/>
        </a>
      </g>
      <text text-anchor="middle" x="402.5" y="-219" font-family="Roboto" font-size="10.00">team</text>
    </g>
  </g>
</svg>
