<?xml version="1.0" encoding="UTF-8" standalone="no"?>
<!DOCTYPE svg PUBLIC "-//W3C//DTD SVG 1.1//EN"
 "http://www.w3.org/Graphics/SVG/1.1/DTD/svg11.dtd">
<!-- Generated by graphviz version 2.43.0 (0)
 -->
<!-- Title: %3 Pages: 1 -->
<svg width="630pt" height="1132pt"
 viewBox="0.00 0.00 630.00 1132.00" xmlns="http://www.w3.org/2000/svg" xmlns:xlink="http://www.w3.org/1999/xlink">
<g id="graph0" class="graph" transform="scale(1 1) rotate(0) translate(4 1128)">
<title>%3</title>
<polygon fill="white" stroke="transparent" points="-4,4 -4,-1128 626,-1128 626,4 -4,4"/>
<!-- email -->
<g id="node1" class="node">
<title>email</title>
<polygon fill="none" stroke="black" points="18,-304 18,-332 267,-332 267,-304 18,-304"/>
<text text-anchor="start" x="118" y="-315.2" font-family="Helvetica,sans-Serif" font-weight="bold" font-size="16.00">email</text>
<polygon fill="none" stroke="black" points="18,-279 18,-304 267,-304 267,-279 18,-279"/>
<text text-anchor="start" x="23" y="-288.8" font-family="Helvetica,sans-Serif" text-decoration="underline" font-size="14.00">uid</text>
<text text-anchor="start" x="45" y="-288.8" font-family="Helvetica,sans-Serif" font-size="14.00"> </text>
<text text-anchor="start" x="50" y="-288.8" font-family="Helvetica,sans-Serif" font-size="14.00"> [VARCHAR]</text>
<text text-anchor="start" x="133" y="-288.8" font-family="Helvetica,sans-Serif" font-size="14.00"> NOT NULL</text>
<polygon fill="none" stroke="black" points="18,-254 18,-279 267,-279 267,-254 18,-254"/>
<text text-anchor="start" x="23" y="-263.8" font-family="Helvetica,sans-Serif" font-size="14.00">bcc</text>
<text text-anchor="start" x="48" y="-263.8" font-family="Helvetica,sans-Serif" font-size="14.00"> </text>
<text text-anchor="start" x="53" y="-263.8" font-family="Helvetica,sans-Serif" font-size="14.00"> [VARCHAR]</text>
<polygon fill="none" stroke="black" points="18,-229 18,-254 267,-254 267,-229 18,-229"/>
<text text-anchor="start" x="23" y="-238.8" font-family="Helvetica,sans-Serif" font-size="14.00">body</text>
<text text-anchor="start" x="58" y="-238.8" font-family="Helvetica,sans-Serif" font-size="14.00"> </text>
<text text-anchor="start" x="63" y="-238.8" font-family="Helvetica,sans-Serif" font-size="14.00"> [VARCHAR]</text>
<polygon fill="none" stroke="black" points="18,-204 18,-229 267,-229 267,-204 18,-204"/>
<text text-anchor="start" x="23" y="-213.8" font-family="Helvetica,sans-Serif" font-size="14.00">cc</text>
<text text-anchor="start" x="39" y="-213.8" font-family="Helvetica,sans-Serif" font-size="14.00"> </text>
<text text-anchor="start" x="44" y="-213.8" font-family="Helvetica,sans-Serif" font-size="14.00"> [VARCHAR]</text>
<polygon fill="none" stroke="black" points="18,-179 18,-204 267,-204 267,-179 18,-179"/>
<text text-anchor="start" x="23" y="-188.8" font-family="Helvetica,sans-Serif" font-size="14.00">created_at</text>
<text text-anchor="start" x="96" y="-188.8" font-family="Helvetica,sans-Serif" font-size="14.00"> </text>
<text text-anchor="start" x="101" y="-188.8" font-family="Helvetica,sans-Serif" font-size="14.00"> [DATETIME]</text>
<text text-anchor="start" x="186" y="-188.8" font-family="Helvetica,sans-Serif" font-size="14.00"> NOT NULL</text>
<polygon fill="none" stroke="black" points="18,-154 18,-179 267,-179 267,-154 18,-154"/>
<text text-anchor="start" x="23" y="-163.8" font-family="Helvetica,sans-Serif" font-size="14.00">id</text>
<text text-anchor="start" x="36" y="-163.8" font-family="Helvetica,sans-Serif" font-size="14.00"> </text>
<text text-anchor="start" x="41" y="-163.8" font-family="Helvetica,sans-Serif" font-size="14.00"> [VARCHAR]</text>
<text text-anchor="start" x="124" y="-163.8" font-family="Helvetica,sans-Serif" font-size="14.00"> NOT NULL</text>
<polygon fill="none" stroke="black" points="18,-129 18,-154 267,-154 267,-129 18,-129"/>
<text text-anchor="start" x="23" y="-138.8" font-family="Helvetica,sans-Serif" font-size="14.00">sender</text>
<text text-anchor="start" x="72" y="-138.8" font-family="Helvetica,sans-Serif" font-size="14.00"> </text>
<text text-anchor="start" x="77" y="-138.8" font-family="Helvetica,sans-Serif" font-size="14.00"> [VARCHAR]</text>
<polygon fill="none" stroke="black" points="18,-104 18,-129 267,-129 267,-104 18,-104"/>
<text text-anchor="start" x="23" y="-113.8" font-family="Helvetica,sans-Serif" font-size="14.00">subject</text>
<text text-anchor="start" x="74" y="-113.8" font-family="Helvetica,sans-Serif" font-size="14.00"> </text>
<text text-anchor="start" x="79" y="-113.8" font-family="Helvetica,sans-Serif" font-size="14.00"> [VARCHAR]</text>
<text text-anchor="start" x="162" y="-113.8" font-family="Helvetica,sans-Serif" font-size="14.00"> NOT NULL</text>
<polygon fill="none" stroke="black" points="18,-79 18,-104 267,-104 267,-79 18,-79"/>
<text text-anchor="start" x="23" y="-88.8" font-family="Helvetica,sans-Serif" font-size="14.00">to</text>
<text text-anchor="start" x="37" y="-88.8" font-family="Helvetica,sans-Serif" font-size="14.00"> </text>
<text text-anchor="start" x="42" y="-88.8" font-family="Helvetica,sans-Serif" font-size="14.00"> [VARCHAR]</text>
<polygon fill="none" stroke="black" points="18,-54 18,-79 267,-79 267,-54 18,-54"/>
<text text-anchor="start" x="23" y="-63.8" font-family="Helvetica,sans-Serif" font-size="14.00">tracking_id</text>
<text text-anchor="start" x="100" y="-63.8" font-family="Helvetica,sans-Serif" font-size="14.00"> </text>
<text text-anchor="start" x="105" y="-63.8" font-family="Helvetica,sans-Serif" font-size="14.00"> [VARCHAR]</text>
<polygon fill="none" stroke="black" points="18,-29 18,-54 267,-54 267,-29 18,-29"/>
<text text-anchor="start" x="23" y="-38.8" font-family="Helvetica,sans-Serif" font-size="14.00">type</text>
<text text-anchor="start" x="54" y="-38.8" font-family="Helvetica,sans-Serif" font-size="14.00"> </text>
<text text-anchor="start" x="59" y="-38.8" font-family="Helvetica,sans-Serif" font-size="14.00"> [VARCHAR]</text>
<text text-anchor="start" x="142" y="-38.8" font-family="Helvetica,sans-Serif" font-size="14.00"> NOT NULL</text>
<polygon fill="none" stroke="black" points="18,-4 18,-29 267,-29 267,-4 18,-4"/>
<text text-anchor="start" x="23" y="-13.8" font-family="Helvetica,sans-Serif" font-size="14.00">updated_at</text>
<text text-anchor="start" x="102" y="-13.8" font-family="Helvetica,sans-Serif" font-size="14.00"> </text>
<text text-anchor="start" x="107" y="-13.8" font-family="Helvetica,sans-Serif" font-size="14.00"> [DATETIME]</text>
</g>
<!-- tag -->
<g id="node2" class="node">
<title>tag</title>
<polygon fill="none" stroke="black" points="18,-687 18,-715 267,-715 267,-687 18,-687"/>
<text text-anchor="start" x="127.5" y="-698.2" font-family="Helvetica,sans-Serif" font-weight="bold" font-size="16.00">tag</text>
<polygon fill="none" stroke="black" points="18,-662 18,-687 267,-687 267,-662 18,-662"/>
<text text-anchor="start" x="23" y="-671.8" font-family="Helvetica,sans-Serif" text-decoration="underline" font-size="14.00">uid</text>
<text text-anchor="start" x="45" y="-671.8" font-family="Helvetica,sans-Serif" font-size="14.00"> </text>
<text text-anchor="start" x="50" y="-671.8" font-family="Helvetica,sans-Serif" font-size="14.00"> [VARCHAR]</text>
<text text-anchor="start" x="133" y="-671.8" font-family="Helvetica,sans-Serif" font-size="14.00"> NOT NULL</text>
<polygon fill="none" stroke="black" points="18,-637 18,-662 267,-662 267,-637 18,-637"/>
<text text-anchor="start" x="23" y="-646.8" font-family="Helvetica,sans-Serif" font-size="14.00">created_at</text>
<text text-anchor="start" x="96" y="-646.8" font-family="Helvetica,sans-Serif" font-size="14.00"> </text>
<text text-anchor="start" x="101" y="-646.8" font-family="Helvetica,sans-Serif" font-size="14.00"> [DATETIME]</text>
<text text-anchor="start" x="186" y="-646.8" font-family="Helvetica,sans-Serif" font-size="14.00"> NOT NULL</text>
<polygon fill="none" stroke="black" points="18,-612 18,-637 267,-637 267,-612 18,-612"/>
<text text-anchor="start" x="23" y="-621.8" font-family="Helvetica,sans-Serif" font-size="14.00">id</text>
<text text-anchor="start" x="36" y="-621.8" font-family="Helvetica,sans-Serif" font-size="14.00"> </text>
<text text-anchor="start" x="41" y="-621.8" font-family="Helvetica,sans-Serif" font-size="14.00"> [VARCHAR]</text>
<text text-anchor="start" x="124" y="-621.8" font-family="Helvetica,sans-Serif" font-size="14.00"> NOT NULL</text>
<polygon fill="none" stroke="black" points="18,-587 18,-612 267,-612 267,-587 18,-587"/>
<text text-anchor="start" x="23" y="-596.8" font-family="Helvetica,sans-Serif" font-size="14.00">name</text>
<text text-anchor="start" x="63" y="-596.8" font-family="Helvetica,sans-Serif" font-size="14.00"> </text>
<text text-anchor="start" x="68" y="-596.8" font-family="Helvetica,sans-Serif" font-size="14.00"> [VARCHAR]</text>
<text text-anchor="start" x="151" y="-596.8" font-family="Helvetica,sans-Serif" font-size="14.00"> NOT NULL</text>
<polygon fill="none" stroke="black" points="18,-562 18,-587 267,-587 267,-562 18,-562"/>
<text text-anchor="start" x="23" y="-571.8" font-family="Helvetica,sans-Serif" font-size="14.00">updated_at</text>
<text text-anchor="start" x="102" y="-571.8" font-family="Helvetica,sans-Serif" font-size="14.00"> </text>
<text text-anchor="start" x="107" y="-571.8" font-family="Helvetica,sans-Serif" font-size="14.00"> [DATETIME]</text>
</g>
<!-- tag_team_link -->
<g id="node3" class="node">
<title>tag_team_link</title>
<polygon fill="none" stroke="black" points="375.5,-650 375.5,-678 604.5,-678 604.5,-650 375.5,-650"/>
<text text-anchor="start" x="428" y="-661.2" font-family="Helvetica,sans-Serif" font-weight="bold" font-size="16.00">tag_team_link</text>
<polygon fill="none" stroke="black" points="375.5,-625 375.5,-650 604.5,-650 604.5,-625 375.5,-625"/>
<text text-anchor="start" x="380.5" y="-634.8" font-family="Helvetica,sans-Serif" text-decoration="underline" font-size="14.00">tag_id</text>
<text text-anchor="start" x="423.5" y="-634.8" font-family="Helvetica,sans-Serif" font-size="14.00"> </text>
<text text-anchor="start" x="428.5" y="-634.8" font-family="Helvetica,sans-Serif" font-size="14.00"> [VARCHAR]</text>
<text text-anchor="start" x="511.5" y="-634.8" font-family="Helvetica,sans-Serif" font-size="14.00"> NOT NULL</text>
<polygon fill="none" stroke="black" points="375.5,-600 375.5,-625 604.5,-625 604.5,-600 375.5,-600"/>
<text text-anchor="start" x="380.5" y="-609.8" font-family="Helvetica,sans-Serif" text-decoration="underline" font-size="14.00">team_id</text>
<text text-anchor="start" x="435.5" y="-609.8" font-family="Helvetica,sans-Serif" font-size="14.00"> </text>
<text text-anchor="start" x="440.5" y="-609.8" font-family="Helvetica,sans-Serif" font-size="14.00"> [VARCHAR]</text>
<text text-anchor="start" x="523.5" y="-609.8" font-family="Helvetica,sans-Serif" font-size="14.00"> NOT NULL</text>
</g>
<!-- tag&#45;&#45;tag_team_link -->
<g id="edge1" class="edge">
<title>tag&#45;&#45;tag_team_link</title>
<path fill="none" stroke="#7f7f7f" stroke-dasharray="5,2" d="M274.6,-639C304.93,-639 337.04,-639 366.92,-639"/>
<text text-anchor="start" x="335.92" y="-627.8" font-family="Times,serif" font-size="14.00">0..N</text>
<text text-anchor="start" x="274.6" y="-627.8" font-family="Times,serif" font-size="14.00">1</text>
</g>
<!-- team -->
<g id="node4" class="node">
<title>team</title>
<polygon fill="none" stroke="black" points="8,-508 8,-536 276,-536 276,-508 8,-508"/>
<text text-anchor="start" x="119" y="-519.2" font-family="Helvetica,sans-Serif" font-weight="bold" font-size="16.00">team</text>
<polygon fill="none" stroke="black" points="8,-483 8,-508 276,-508 276,-483 8,-483"/>
<text text-anchor="start" x="13" y="-492.8" font-family="Helvetica,sans-Serif" text-decoration="underline" font-size="14.00">uid</text>
<text text-anchor="start" x="35" y="-492.8" font-family="Helvetica,sans-Serif" font-size="14.00"> </text>
<text text-anchor="start" x="40" y="-492.8" font-family="Helvetica,sans-Serif" font-size="14.00"> [VARCHAR]</text>
<text text-anchor="start" x="123" y="-492.8" font-family="Helvetica,sans-Serif" font-size="14.00"> NOT NULL</text>
<polygon fill="none" stroke="black" points="8,-458 8,-483 276,-483 276,-458 8,-458"/>
<text text-anchor="start" x="13" y="-467.8" font-family="Helvetica,sans-Serif" font-size="14.00">created_at</text>
<text text-anchor="start" x="86" y="-467.8" font-family="Helvetica,sans-Serif" font-size="14.00"> </text>
<text text-anchor="start" x="91" y="-467.8" font-family="Helvetica,sans-Serif" font-size="14.00"> [DATETIME]</text>
<text text-anchor="start" x="176" y="-467.8" font-family="Helvetica,sans-Serif" font-size="14.00"> NOT NULL</text>
<polygon fill="none" stroke="black" points="8,-433 8,-458 276,-458 276,-433 8,-433"/>
<text text-anchor="start" x="13" y="-442.8" font-family="Helvetica,sans-Serif" font-size="14.00">headquarters</text>
<text text-anchor="start" x="107" y="-442.8" font-family="Helvetica,sans-Serif" font-size="14.00"> </text>
<text text-anchor="start" x="112" y="-442.8" font-family="Helvetica,sans-Serif" font-size="14.00"> [VARCHAR]</text>
<text text-anchor="start" x="195" y="-442.8" font-family="Helvetica,sans-Serif" font-size="14.00"> NOT NULL</text>
<polygon fill="none" stroke="black" points="8,-408 8,-433 276,-433 276,-408 8,-408"/>
<text text-anchor="start" x="13" y="-417.8" font-family="Helvetica,sans-Serif" font-size="14.00">id</text>
<text text-anchor="start" x="26" y="-417.8" font-family="Helvetica,sans-Serif" font-size="14.00"> </text>
<text text-anchor="start" x="31" y="-417.8" font-family="Helvetica,sans-Serif" font-size="14.00"> [VARCHAR]</text>
<text text-anchor="start" x="114" y="-417.8" font-family="Helvetica,sans-Serif" font-size="14.00"> NOT NULL</text>
<polygon fill="none" stroke="black" points="8,-383 8,-408 276,-408 276,-383 8,-383"/>
<text text-anchor="start" x="13" y="-392.8" font-family="Helvetica,sans-Serif" font-size="14.00">name</text>
<text text-anchor="start" x="53" y="-392.8" font-family="Helvetica,sans-Serif" font-size="14.00"> </text>
<text text-anchor="start" x="58" y="-392.8" font-family="Helvetica,sans-Serif" font-size="14.00"> [VARCHAR]</text>
<text text-anchor="start" x="141" y="-392.8" font-family="Helvetica,sans-Serif" font-size="14.00"> NOT NULL</text>
<polygon fill="none" stroke="black" points="8,-358 8,-383 276,-383 276,-358 8,-358"/>
<text text-anchor="start" x="13" y="-367.8" font-family="Helvetica,sans-Serif" font-size="14.00">updated_at</text>
<text text-anchor="start" x="92" y="-367.8" font-family="Helvetica,sans-Serif" font-size="14.00"> </text>
<text text-anchor="start" x="97" y="-367.8" font-family="Helvetica,sans-Serif" font-size="14.00"> [DATETIME]</text>
</g>
<!-- team&#45;&#45;tag_team_link -->
<g id="edge2" class="edge">
<title>team&#45;&#45;tag_team_link</title>
<path fill="none" stroke="#7f7f7f" stroke-dasharray="5,2" d="M276.35,-540.15C302.53,-556.73 330.19,-573.11 357,-587 362.89,-590.05 368.99,-593.03 375.21,-595.93"/>
<text text-anchor="start" x="344.21" y="-584.73" font-family="Times,serif" font-size="14.00">0..N</text>
<text text-anchor="start" x="266.35" y="-543.95" font-family="Times,serif" font-size="14.00">1</text>
</g>
<!-- user -->
<g id="node5" class="node">
<title>user</title>
<polygon fill="none" stroke="black" points="365.5,-545 365.5,-573 614.5,-573 614.5,-545 365.5,-545"/>
<text text-anchor="start" x="470" y="-556.2" font-family="Helvetica,sans-Serif" font-weight="bold" font-size="16.00">user</text>
<polygon fill="none" stroke="black" points="365.5,-520 365.5,-545 614.5,-545 614.5,-520 365.5,-520"/>
<text text-anchor="start" x="370.5" y="-529.8" font-family="Helvetica,sans-Serif" text-decoration="underline" font-size="14.00">uid</text>
<text text-anchor="start" x="392.5" y="-529.8" font-family="Helvetica,sans-Serif" font-size="14.00"> </text>
<text text-anchor="start" x="397.5" y="-529.8" font-family="Helvetica,sans-Serif" font-size="14.00"> [VARCHAR]</text>
<text text-anchor="start" x="480.5" y="-529.8" font-family="Helvetica,sans-Serif" font-size="14.00"> NOT NULL</text>
<polygon fill="none" stroke="black" points="365.5,-495 365.5,-520 614.5,-520 614.5,-495 365.5,-495"/>
<text text-anchor="start" x="370.5" y="-504.8" font-family="Helvetica,sans-Serif" font-size="14.00">created_at</text>
<text text-anchor="start" x="443.5" y="-504.8" font-family="Helvetica,sans-Serif" font-size="14.00"> </text>
<text text-anchor="start" x="448.5" y="-504.8" font-family="Helvetica,sans-Serif" font-size="14.00"> [DATETIME]</text>
<text text-anchor="start" x="533.5" y="-504.8" font-family="Helvetica,sans-Serif" font-size="14.00"> NOT NULL</text>
<polygon fill="none" stroke="black" points="365.5,-470 365.5,-495 614.5,-495 614.5,-470 365.5,-470"/>
<text text-anchor="start" x="370.5" y="-479.8" font-family="Helvetica,sans-Serif" font-size="14.00">email</text>
<text text-anchor="start" x="408.5" y="-479.8" font-family="Helvetica,sans-Serif" font-size="14.00"> </text>
<text text-anchor="start" x="413.5" y="-479.8" font-family="Helvetica,sans-Serif" font-size="14.00"> [VARCHAR]</text>
<text text-anchor="start" x="496.5" y="-479.8" font-family="Helvetica,sans-Serif" font-size="14.00"> NOT NULL</text>
<polygon fill="none" stroke="black" points="365.5,-445 365.5,-470 614.5,-470 614.5,-445 365.5,-445"/>
<text text-anchor="start" x="370.5" y="-454.8" font-family="Helvetica,sans-Serif" font-size="14.00">first_name</text>
<text text-anchor="start" x="444.5" y="-454.8" font-family="Helvetica,sans-Serif" font-size="14.00"> </text>
<text text-anchor="start" x="449.5" y="-454.8" font-family="Helvetica,sans-Serif" font-size="14.00"> [VARCHAR]</text>
<text text-anchor="start" x="532.5" y="-454.8" font-family="Helvetica,sans-Serif" font-size="14.00"> NOT NULL</text>
<polygon fill="none" stroke="black" points="365.5,-420 365.5,-445 614.5,-445 614.5,-420 365.5,-420"/>
<text text-anchor="start" x="370.5" y="-429.8" font-family="Helvetica,sans-Serif" font-size="14.00">id</text>
<text text-anchor="start" x="383.5" y="-429.8" font-family="Helvetica,sans-Serif" font-size="14.00"> </text>
<text text-anchor="start" x="388.5" y="-429.8" font-family="Helvetica,sans-Serif" font-size="14.00"> [VARCHAR]</text>
<text text-anchor="start" x="471.5" y="-429.8" font-family="Helvetica,sans-Serif" font-size="14.00"> NOT NULL</text>
<polygon fill="none" stroke="black" points="365.5,-395 365.5,-420 614.5,-420 614.5,-395 365.5,-395"/>
<text text-anchor="start" x="370.5" y="-404.8" font-family="Helvetica,sans-Serif" font-size="14.00">last_name</text>
<text text-anchor="start" x="441.5" y="-404.8" font-family="Helvetica,sans-Serif" font-size="14.00"> </text>
<text text-anchor="start" x="446.5" y="-404.8" font-family="Helvetica,sans-Serif" font-size="14.00"> [VARCHAR]</text>
<text text-anchor="start" x="529.5" y="-404.8" font-family="Helvetica,sans-Serif" font-size="14.00"> NOT NULL</text>
<polygon fill="none" stroke="black" points="365.5,-370 365.5,-395 614.5,-395 614.5,-370 365.5,-370"/>
<text text-anchor="start" x="370.5" y="-379.8" font-family="Helvetica,sans-Serif" font-size="14.00">name</text>
<text text-anchor="start" x="410.5" y="-379.8" font-family="Helvetica,sans-Serif" font-size="14.00"> </text>
<text text-anchor="start" x="415.5" y="-379.8" font-family="Helvetica,sans-Serif" font-size="14.00"> [VARCHAR]</text>
<text text-anchor="start" x="498.5" y="-379.8" font-family="Helvetica,sans-Serif" font-size="14.00"> NOT NULL</text>
<polygon fill="none" stroke="black" points="365.5,-345 365.5,-370 614.5,-370 614.5,-345 365.5,-345"/>
<text text-anchor="start" x="370.5" y="-354.8" font-family="Helvetica,sans-Serif" font-size="14.00">team_id</text>
<text text-anchor="start" x="425.5" y="-354.8" font-family="Helvetica,sans-Serif" font-size="14.00"> </text>
<text text-anchor="start" x="430.5" y="-354.8" font-family="Helvetica,sans-Serif" font-size="14.00"> [VARCHAR]</text>
<polygon fill="none" stroke="black" points="365.5,-320 365.5,-345 614.5,-345 614.5,-320 365.5,-320"/>
<text text-anchor="start" x="370.5" y="-329.8" font-family="Helvetica,sans-Serif" font-size="14.00">updated_at</text>
<text text-anchor="start" x="449.5" y="-329.8" font-family="Helvetica,sans-Serif" font-size="14.00"> </text>
<text text-anchor="start" x="454.5" y="-329.8" font-family="Helvetica,sans-Serif" font-size="14.00"> [DATETIME]</text>
</g>
<!-- team&#45;&#45;user -->
<g id="edge3" class="edge">
<title>team&#45;&#45;user</title>
<path fill="none" stroke="#7f7f7f" stroke-dasharray="5,2" d="M284.03,-447C308.1,-447 333.02,-447 356.83,-447"/>
<text text-anchor="start" x="325.83" y="-435.8" font-family="Times,serif" font-size="14.00">0..N</text>
<text text-anchor="start" x="284.03" y="-435.8" font-family="Times,serif" font-size="14.00">{0,1}</text>
</g>
<!-- task -->
<g id="node6" class="node">
<title>task</title>
<polygon fill="none" stroke="black" points="18,-1092 18,-1120 267,-1120 267,-1092 18,-1092"/>
<text text-anchor="start" x="123" y="-1103.2" font-family="Helvetica,sans-Serif" font-weight="bold" font-size="16.00">task</text>
<polygon fill="none" stroke="black" points="18,-1067 18,-1092 267,-1092 267,-1067 18,-1067"/>
<text text-anchor="start" x="23" y="-1076.8" font-family="Helvetica,sans-Serif" text-decoration="underline" font-size="14.00">uid</text>
<text text-anchor="start" x="45" y="-1076.8" font-family="Helvetica,sans-Serif" font-size="14.00"> </text>
<text text-anchor="start" x="50" y="-1076.8" font-family="Helvetica,sans-Serif" font-size="14.00"> [VARCHAR]</text>
<text text-anchor="start" x="133" y="-1076.8" font-family="Helvetica,sans-Serif" font-size="14.00"> NOT NULL</text>
<polygon fill="none" stroke="black" points="18,-1042 18,-1067 267,-1067 267,-1042 18,-1042"/>
<text text-anchor="start" x="23" y="-1051.8" font-family="Helvetica,sans-Serif" font-size="14.00">context</text>
<text text-anchor="start" x="75" y="-1051.8" font-family="Helvetica,sans-Serif" font-size="14.00"> </text>
<text text-anchor="start" x="80" y="-1051.8" font-family="Helvetica,sans-Serif" font-size="14.00"> [JSON]</text>
<polygon fill="none" stroke="black" points="18,-1017 18,-1042 267,-1042 267,-1017 18,-1017"/>
<text text-anchor="start" x="23" y="-1026.8" font-family="Helvetica,sans-Serif" font-size="14.00">created_at</text>
<text text-anchor="start" x="96" y="-1026.8" font-family="Helvetica,sans-Serif" font-size="14.00"> </text>
<text text-anchor="start" x="101" y="-1026.8" font-family="Helvetica,sans-Serif" font-size="14.00"> [DATETIME]</text>
<text text-anchor="start" x="186" y="-1026.8" font-family="Helvetica,sans-Serif" font-size="14.00"> NOT NULL</text>
<polygon fill="none" stroke="black" points="18,-992 18,-1017 267,-1017 267,-992 18,-992"/>
<text text-anchor="start" x="23" y="-1001.8" font-family="Helvetica,sans-Serif" font-size="14.00">created_by</text>
<text text-anchor="start" x="99" y="-1001.8" font-family="Helvetica,sans-Serif" font-size="14.00"> </text>
<text text-anchor="start" x="104" y="-1001.8" font-family="Helvetica,sans-Serif" font-size="14.00"> [VARCHAR]</text>
<polygon fill="none" stroke="black" points="18,-967 18,-992 267,-992 267,-967 18,-967"/>
<text text-anchor="start" x="23" y="-976.8" font-family="Helvetica,sans-Serif" font-size="14.00">description</text>
<text text-anchor="start" x="101" y="-976.8" font-family="Helvetica,sans-Serif" font-size="14.00"> </text>
<text text-anchor="start" x="106" y="-976.8" font-family="Helvetica,sans-Serif" font-size="14.00"> [VARCHAR]</text>
<polygon fill="none" stroke="black" points="18,-942 18,-967 267,-967 267,-942 18,-942"/>
<text text-anchor="start" x="23" y="-951.8" font-family="Helvetica,sans-Serif" font-size="14.00">email_notification</text>
<text text-anchor="start" x="145" y="-951.8" font-family="Helvetica,sans-Serif" font-size="14.00"> </text>
<text text-anchor="start" x="150" y="-951.8" font-family="Helvetica,sans-Serif" font-size="14.00"> [JSON]</text>
<polygon fill="none" stroke="black" points="18,-917 18,-942 267,-942 267,-917 18,-917"/>
<text text-anchor="start" x="23" y="-926.8" font-family="Helvetica,sans-Serif" font-size="14.00">ended_at</text>
<text text-anchor="start" x="87" y="-926.8" font-family="Helvetica,sans-Serif" font-size="14.00"> </text>
<text text-anchor="start" x="92" y="-926.8" font-family="Helvetica,sans-Serif" font-size="14.00"> [DATETIME]</text>
<polygon fill="none" stroke="black" points="18,-892 18,-917 267,-917 267,-892 18,-892"/>
<text text-anchor="start" x="23" y="-901.8" font-family="Helvetica,sans-Serif" font-size="14.00">id</text>
<text text-anchor="start" x="36" y="-901.8" font-family="Helvetica,sans-Serif" font-size="14.00"> </text>
<text text-anchor="start" x="41" y="-901.8" font-family="Helvetica,sans-Serif" font-size="14.00"> [VARCHAR]</text>
<text text-anchor="start" x="124" y="-901.8" font-family="Helvetica,sans-Serif" font-size="14.00"> NOT NULL</text>
<polygon fill="none" stroke="black" points="18,-867 18,-892 267,-892 267,-867 18,-867"/>
<text text-anchor="start" x="23" y="-876.8" font-family="Helvetica,sans-Serif" font-size="14.00">message</text>
<text text-anchor="start" x="86" y="-876.8" font-family="Helvetica,sans-Serif" font-size="14.00"> </text>
<text text-anchor="start" x="91" y="-876.8" font-family="Helvetica,sans-Serif" font-size="14.00"> [VARCHAR]</text>
<polygon fill="none" stroke="black" points="18,-842 18,-867 267,-867 267,-842 18,-842"/>
<text text-anchor="start" x="23" y="-851.8" font-family="Helvetica,sans-Serif" font-size="14.00">name</text>
<text text-anchor="start" x="63" y="-851.8" font-family="Helvetica,sans-Serif" font-size="14.00"> </text>
<text text-anchor="start" x="68" y="-851.8" font-family="Helvetica,sans-Serif" font-size="14.00"> [VARCHAR]</text>
<text text-anchor="start" x="151" y="-851.8" font-family="Helvetica,sans-Serif" font-size="14.00"> NOT NULL</text>
<polygon fill="none" stroke="black" points="18,-817 18,-842 267,-842 267,-817 18,-817"/>
<text text-anchor="start" x="23" y="-826.8" font-family="Helvetica,sans-Serif" font-size="14.00">status</text>
<text text-anchor="start" x="66" y="-826.8" font-family="Helvetica,sans-Serif" font-size="14.00"> </text>
<text text-anchor="start" x="71" y="-826.8" font-family="Helvetica,sans-Serif" font-size="14.00"> [VARCHAR(11)]</text>
<text text-anchor="start" x="183" y="-826.8" font-family="Helvetica,sans-Serif" font-size="14.00"> NOT NULL</text>
<polygon fill="none" stroke="black" points="18,-792 18,-817 267,-817 267,-792 18,-792"/>
<text text-anchor="start" x="23" y="-801.8" font-family="Helvetica,sans-Serif" font-size="14.00">task_duration</text>
<text text-anchor="start" x="118" y="-801.8" font-family="Helvetica,sans-Serif" font-size="14.00"> </text>
<text text-anchor="start" x="123" y="-801.8" font-family="Helvetica,sans-Serif" font-size="14.00"> [DATETIME]</text>
<polygon fill="none" stroke="black" points="18,-767 18,-792 267,-792 267,-767 18,-767"/>
<text text-anchor="start" x="23" y="-776.8" font-family="Helvetica,sans-Serif" font-size="14.00">type</text>
<text text-anchor="start" x="54" y="-776.8" font-family="Helvetica,sans-Serif" font-size="14.00"> </text>
<text text-anchor="start" x="59" y="-776.8" font-family="Helvetica,sans-Serif" font-size="14.00"> [VARCHAR]</text>
<text text-anchor="start" x="142" y="-776.8" font-family="Helvetica,sans-Serif" font-size="14.00"> NOT NULL</text>
<polygon fill="none" stroke="black" points="18,-742 18,-767 267,-767 267,-742 18,-742"/>
<text text-anchor="start" x="23" y="-751.8" font-family="Helvetica,sans-Serif" font-size="14.00">updated_at</text>
<text text-anchor="start" x="102" y="-751.8" font-family="Helvetica,sans-Serif" font-size="14.00"> </text>
<text text-anchor="start" x="107" y="-751.8" font-family="Helvetica,sans-Serif" font-size="14.00"> [DATETIME]</text>
</g>
</g>
</svg>
